<svg width="16" height="16" viewBox="0 0 16 16" fill="none" xmlns="http://www.w3.org/2000/svg">
<g clip-path="url(#clip0_219_305)">
<path d="M15.9746 12.0937L15.5407 13.9719L9.52771 11.4834L10.368 10.4545L10.3484 10.4467L10.8791 9.80233C11.1534 9.46642 11.6194 9.35198 12.0188 9.52186L15.4083 10.9753C15.8431 11.1659 16.081 11.6347 15.9746 12.0937Z" fill="#0070CC"/>
<path d="M14.2969 16C6.4125 16 -4.37408e-05 9.58436 4.6067e-09 1.70311C-4.37408e-05 1.24467 0.311469 0.853732 0.756875 0.751544L2.0275 0.458419L4.51562 6.47186C5.57812 8.66248 7.3375 10.4219 9.50119 11.484L15.5418 13.9725L15.2487 15.2431C15.1472 15.6885 14.7547 16 14.2969 16Z" fill="#0070CC"/>
<path d="M6.4775 3.98279C6.65031 4.38217 6.53375 4.85039 6.19688 5.12186L5.55002 5.64996L4.51562 6.47186L2.0275 0.458419L3.35313 0.152607L3.87812 0.0251318C4.3625 -0.0802682 4.8375 0.156763 5.025 0.591232L6.4775 3.98279Z" fill="#0070CC"/>
</g>
<defs>
<clipPath id="clip0_219_305">
<rect width="16" height="16" fill="white"/>
</clipPath>
</defs>
</svg>
