<svg width="60" height="60" viewBox="0 0 60 60" fill="none" xmlns="http://www.w3.org/2000/svg">
<path d="M55.0011 30.2619C55.0011 35.2066 53.5348 40.0403 50.7876 44.1517C48.0405 48.2631 44.1358 51.4676 39.5675 53.3598C34.9991 55.2521 29.9723 55.7472 25.1225 54.7825C20.2728 53.8179 15.818 51.4367 12.3216 47.9403C8.82513 44.4438 6.44401 39.9891 5.47933 35.1393C4.51466 30.2896 5.00977 25.2627 6.90204 20.6944C8.79431 16.126 11.9988 12.2214 16.1102 9.47425C20.2216 6.7271 25.0553 5.26082 30 5.26082C33.2832 5.26082 36.5342 5.90749 39.5675 7.16391C42.6008 8.42033 45.3569 10.2619 47.6784 12.5835C50 14.905 51.8415 17.6611 53.098 20.6944C54.3544 23.7276 55.0011 26.9787 55.0011 30.2619ZM41.2989 19.7398C41.2973 19.0775 41.0337 18.4428 40.5657 17.9742C40.0977 17.5056 39.4633 17.2412 38.8011 17.2387H37.9547V19.6608C37.9531 20.5888 37.5835 21.4783 36.927 22.1342C36.2705 22.7901 35.3806 23.1589 34.4526 23.1598H25.2316C24.303 23.1598 23.4124 22.7913 22.7552 22.1353C22.098 21.4793 21.728 20.5894 21.7263 19.6608V17.2387H20.8832C20.2203 17.2404 19.5852 17.5044 19.1165 17.9731C18.6478 18.4418 18.3838 19.077 18.3821 19.7398V43.1177C18.3838 43.7805 18.6478 44.4157 19.1165 44.8843C19.5852 45.353 20.2203 45.617 20.8832 45.6187H38.7979C39.4602 45.6162 40.0945 45.3518 40.5625 44.8832C41.0305 44.4146 41.2941 43.7799 41.2958 43.1177L41.2989 19.7398ZM37.8979 27.704H21.4326V30.205H37.8979V27.704ZM37.8979 33.1134H21.4326V35.6145H37.8979V33.1134ZM37.8979 38.5229H21.4326V41.0208H37.8979V38.5229ZM24.2305 19.6608C24.2314 19.9261 24.3371 20.1802 24.5246 20.3677C24.7122 20.5553 24.9663 20.661 25.2316 20.6619H34.4526C34.7179 20.661 34.972 20.5553 35.1596 20.3677C35.3471 20.1802 35.4529 19.9261 35.4537 19.6608V16.7745C35.4529 16.5098 35.3476 16.2561 35.1607 16.0687C34.9738 15.8812 34.7205 15.7751 34.4558 15.7734H32.6968V13.1113C32.6952 12.8467 32.5891 12.5933 32.4016 12.4064C32.2141 12.2196 31.9605 12.1143 31.6958 12.1134H27.9916C27.7269 12.1143 27.4732 12.2196 27.2858 12.4064C27.0983 12.5933 26.9922 12.8467 26.9905 13.1113V15.7734H25.2316C24.9663 15.7743 24.7122 15.88 24.5246 16.0676C24.3371 16.2551 24.2314 16.5093 24.2305 16.7745V19.6608ZM28.6011 14.6682C28.6011 14.4209 28.6744 14.1791 28.8118 13.9734C28.9492 13.7678 29.1445 13.6075 29.373 13.5129C29.6015 13.4182 29.853 13.3934 30.0955 13.4417C30.3381 13.4899 30.5609 13.609 30.7358 13.7839C30.9107 13.9588 31.0298 14.1816 31.0781 14.4242C31.1263 14.6668 31.1016 14.9182 31.0069 15.1467C30.9123 15.3752 30.752 15.5706 30.5463 15.708C30.3407 15.8454 30.0989 15.9187 29.8516 15.9187C29.5199 15.9187 29.2018 15.787 28.9673 15.5524C28.7328 15.3179 28.6011 14.9998 28.6011 14.6682Z" fill="#FFBD2E"/>
</svg>
