<svg width="60" height="61" viewBox="0 0 60 61" fill="none" xmlns="http://www.w3.org/2000/svg">
<g clip-path="url(#clip0_1_20)">
<path d="M22.978 46.363C23.3559 46.7428 23.8396 46.8714 24.0572 46.6518L29.5608 40.9504C29.8512 41.0355 30.1594 41.0395 30.4519 40.9619C30.7445 40.8843 31.0101 40.728 31.2201 40.5101C31.4301 40.2921 31.5764 40.0208 31.6431 39.7256C31.7098 39.4305 31.6944 39.1226 31.5985 38.8356L39.7748 30.3605C39.8422 30.2916 39.8904 30.2061 39.9145 30.1127C39.9386 30.0194 39.9379 29.9213 39.9123 29.8283L41.0073 28.7333L40.6116 28.3377L39.5156 29.4337C39.4225 29.4076 39.3242 29.4066 39.2306 29.4308C39.137 29.4549 39.0514 29.5033 38.9825 29.5711L30.5064 37.7455C30.3444 37.6914 30.1748 37.6627 30.004 37.6605C29.558 37.6605 29.1303 37.8376 28.8149 38.153C28.4996 38.4683 28.3224 38.8961 28.3224 39.342C28.3243 39.4929 28.3473 39.6426 28.3907 39.7871L22.6852 45.2888C22.4676 45.5034 22.5972 45.9871 22.978 46.363ZM14.1261 60.5H45.8808V58.2625H14.1221L14.1261 60.5ZM43.5346 48.8636C41.5358 51.695 38.6989 53.8277 35.4236 54.9611C32.1484 56.0945 28.6 56.1715 25.2788 55.1811C21.9575 54.1907 19.0307 52.1829 16.9111 49.4408C14.7915 46.6987 13.586 43.3606 13.4643 39.8969H12.3466C12.4694 43.86 13.9263 47.6655 16.4813 50.6975V57.1428H43.5306V50.6975C46.0849 47.6653 47.541 43.8597 47.6633 39.8969H46.5465C46.4389 43.1163 45.3904 46.2336 43.5306 48.8636H43.5346ZM43.5346 23.9024C43.5335 23.6054 43.4151 23.321 43.2052 23.111C42.9952 22.9011 42.7108 22.7827 42.4139 22.7816H36.1852C32.1988 21.2894 27.8072 21.2894 23.8208 22.7816H17.5931C17.2962 22.7827 17.0119 22.9011 16.8021 23.1111C16.5923 23.3211 16.4741 23.6055 16.4733 23.9024V27.9796C13.9178 31.0109 12.4609 34.8163 12.3387 38.7792H13.4564C13.6083 34.4926 15.418 30.4323 18.5042 27.4536C21.5904 24.4748 25.7122 22.8101 30.0015 22.8101C34.2907 22.8101 38.4126 24.4748 41.4988 27.4536C44.585 30.4323 46.3946 34.4926 46.5465 38.7792H47.6633C47.5408 34.8167 46.0847 31.0116 43.5306 27.9796L43.5346 23.9024ZM37.6907 14.8298H35.4483V21.6619H37.6867L37.6907 14.8298ZM11.2071 4.46548V5.58619H12.3268C12.3268 5.58619 13.7057 13.9673 19.7455 13.9673H40.2595C46.2933 13.9673 47.6781 5.58619 47.6781 5.58619H48.7949V4.46548H11.2071ZM30.5609 20.5491V19.6331H31.1197V18.5154H28.8823V19.6331H29.4421V20.5491H30.5609ZM24.5527 14.8298H22.3153V21.6619H24.5527V14.8298ZM30.001 0.5C17.7454 0.5 15.8274 3.34774 15.8274 3.34774H44.1755C44.1755 3.34774 42.2576 0.5 30.001 0.5ZM30.2809 24.0596H29.7221V26.212H30.2809V24.0596ZM45.2814 39.0581H43.128V39.619H45.2814V39.0581ZM39.0864 48.8191L40.6087 50.3404L41.0043 49.9448L39.482 48.4234L39.0864 48.8191ZM29.7221 54.6185H30.2809V52.4661H29.7221V54.6185ZM19.3953 50.3404L20.9166 48.8191L20.521 48.4234L18.9967 49.9448L19.3953 50.3404ZM14.7216 39.619H16.8749V39.0581H14.7216V39.619ZM20.9166 29.859L19.3953 28.3367L18.9996 28.7324L20.5239 30.2537L20.9166 29.859ZM35.5907 25.1111L34.7657 27.0993L35.2831 27.3129L36.107 25.3267L35.5907 25.1111ZM42.0202 34.053L42.2338 34.5694L44.222 33.7454L44.0094 33.229L42.0202 34.053ZM42.0202 44.6162L44.0094 45.4401L44.222 44.9228L42.2338 44.0988L42.0202 44.6162ZM35.5907 53.5581L36.107 53.3444L35.2831 51.3553L34.7657 51.5699L35.5907 53.5581ZM24.4133 53.5581L25.2382 51.5699L24.7219 51.3553L23.8979 53.3444L24.4133 53.5581ZM15.7799 44.9228L15.9936 45.4401L17.9828 44.6162L17.7691 44.0988L15.7799 44.9228ZM15.9936 33.229L15.7799 33.7454L17.7691 34.5694L17.9828 34.053L15.9936 33.229ZM24.4133 25.1111L23.8979 25.3247L24.7219 27.3129L25.2382 27.0993L24.4133 25.1111Z" fill="#F39200"/>
</g>
<defs>
<clipPath id="clip0_1_20">
<rect width="60" height="60" fill="white" transform="translate(0 0.5)"/>
</clipPath>
</defs>
</svg>
