<svg width="60" height="61" viewBox="0 0 60 61" fill="none" xmlns="http://www.w3.org/2000/svg">
<g clip-path="url(#clip0_1_23)">
<path d="M36.2073 53.0367C36.2073 54.1891 35.9028 55.1988 35.3994 55.9234C35.9042 55.1988 36.2073 54.1891 36.2073 53.0367Z" fill="#F39200"/>
<path d="M24.3947 55.9234C24.8995 56.6448 25.6051 57.0794 26.4096 57.0794C25.6059 57.0795 24.8995 56.6449 24.3947 55.9234Z" fill="#F39200"/>
<path d="M19.6298 42.5408L21.1353 40.3092L19.6278 42.5408C19.3383 42.97 19.309 43.5231 19.5521 43.9809C19.311 43.5231 19.3396 42.97 19.6298 42.5408Z" fill="#F39200"/>
<path d="M23.5862 44.722L23.5855 53.0367C23.5855 54.1891 23.8913 55.1988 24.3947 55.9234C23.8907 55.1986 23.5862 54.1891 23.5862 53.0367V44.722Z" fill="#F39200"/>
<path d="M19.5521 43.9809C19.796 44.4367 20.2707 44.722 20.7878 44.722H20.7885C20.2707 44.722 19.7967 44.4367 19.5521 43.9809Z" fill="#F39200"/>
<path d="M33.3824 57.0795H33.3832C34.1884 57.0795 34.8934 56.6449 35.3989 55.9235C34.8927 56.6449 34.1883 57.0795 33.3824 57.0795Z" fill="#F39200"/>
<path d="M39.0241 44.722C39.7012 44.722 40.2639 44.2424 40.3953 43.6062C40.2632 44.2425 39.7004 44.722 39.0241 44.722Z" fill="black"/>
<path d="M40.2706 42.72C40.2107 42.5973 40.1459 42.4755 40.0554 42.3773L38.7557 40.4528L37.3565 38.3834C37.8707 38.2521 38.3374 38.0157 38.7516 37.707C38.9396 37.5668 39.1139 37.4127 39.2748 37.2438C39.2816 37.237 39.2869 37.2329 39.2932 37.2268C39.4477 37.0628 39.5894 36.8856 39.7142 36.6949C39.721 36.6867 39.7263 36.6779 39.7332 36.6697C39.8591 36.4782 39.9682 36.2766 40.0608 36.0621C40.063 36.058 40.0649 36.0518 40.0671 36.0478C40.161 35.8291 40.2367 35.5996 40.2906 35.3632C40.3191 35.2399 40.3408 35.1159 40.36 34.9898C40.3797 34.8339 40.3967 34.6799 40.4008 34.5185C40.4008 34.5016 40.4034 34.4825 40.4034 34.4654V21.1814C40.4034 21.1814 40.4014 21.1653 40.4014 21.1583C40.4007 20.9399 40.3728 20.7281 40.3387 20.521C40.323 20.4406 40.3121 20.3588 40.2943 20.2808C40.0764 19.3244 39.5158 18.5028 38.7514 17.9391C38.6172 17.8393 38.4707 17.7535 38.3263 17.6704C38.2636 17.635 38.2023 17.5993 38.1377 17.5686C38.0137 17.5047 37.8836 17.4501 37.7528 17.4014C37.6363 17.3589 37.5204 17.3241 37.4012 17.291C37.2997 17.2638 37.1983 17.2325 37.094 17.2138C36.8562 17.1699 36.6124 17.1391 36.3624 17.1391H35.9659H35.9653C36.7193 16.2628 37.2896 15.225 37.6097 14.0817C37.8031 13.3967 37.9052 12.6757 37.9052 11.9305C37.9052 11.6542 37.8916 11.3801 37.863 11.1103C37.4529 7.07904 34.0368 3.92072 29.8978 3.92072C25.7589 3.92072 22.3414 7.07836 21.9306 11.1103C21.9027 11.3801 21.8898 11.6536 21.8898 11.9305C21.8898 12.4264 21.9347 12.9141 22.0233 13.3855C22.2849 14.8024 22.9258 16.0884 23.8297 17.1391H23.4327C23.182 17.1391 22.9403 17.1705 22.7032 17.2138C22.6214 17.2284 22.5411 17.2505 22.4606 17.271C22.3087 17.3091 22.1616 17.3555 22.0172 17.4082C21.9273 17.4426 21.8381 17.4767 21.7495 17.5172C21.6153 17.5799 21.4892 17.6504 21.3645 17.7271C21.2875 17.7731 21.2086 17.8129 21.1356 17.8617C20.355 18.4039 19.7835 19.2173 19.5362 20.1617C19.5355 20.1699 19.5321 20.1763 19.5314 20.1831C19.5001 20.3017 19.477 20.426 19.4537 20.5466C19.4211 20.7554 19.3911 20.9638 19.3911 21.1815V34.4661C19.3911 34.6541 19.4129 34.8379 19.4388 35.0192C19.4626 35.1718 19.4932 35.3217 19.5321 35.4702V35.4716C19.5941 35.7087 19.6759 35.9375 19.7759 36.1548C19.7759 36.1548 19.7759 36.1548 19.7766 36.1548C19.8747 36.3694 19.9918 36.571 20.1227 36.7611C20.1282 36.77 20.1329 36.778 20.1397 36.7856C20.2678 36.9695 20.4122 37.1412 20.5696 37.2985C20.5791 37.3102 20.5886 37.3203 20.5981 37.3298C20.7636 37.4946 20.9441 37.6459 21.137 37.7807C21.528 38.052 21.9633 38.2631 22.4368 38.383L21.137 40.3081L19.6315 42.5397C19.3406 42.9688 19.3127 43.522 19.5545 43.9797C19.7984 44.4354 20.2724 44.7209 20.7909 44.7209H21.483H21.502H23.5871H23.5878V53.0354C23.5878 54.188 23.8929 55.1976 24.3963 55.9223C24.9018 56.6444 25.6075 57.0789 26.4112 57.0789H33.3846C34.1905 57.0789 34.8947 56.6444 35.4016 55.9223C35.9056 55.1975 36.2102 54.188 36.2102 53.0354V44.7209H38.5009H39.0071H39.0078C39.0147 44.7194 39.0207 44.7194 39.0268 44.7209C39.7019 44.7209 40.2653 44.2412 40.3974 43.605C40.4144 43.5137 40.426 43.419 40.426 43.3217C40.424 43.1048 40.3606 42.9059 40.2706 42.72Z" fill="#F39200"/>
<path d="M17.666 35.47V20.1755C17.9118 19.2259 18.484 18.4057 19.2695 17.8609C18.6156 17.4075 17.8261 17.1378 16.9725 17.1378H16.5755C17.7806 15.7355 18.5141 13.9184 18.5141 11.929C18.5141 7.51216 14.9222 3.91992 10.506 3.91992C6.08988 3.91992 2.5007 7.51227 2.5007 11.929C2.5007 13.9184 3.23433 15.7355 4.4401 17.1378H4.04305C1.81347 17.1378 0.00147331 18.9528 0.00147331 21.1814V34.466C0.00147331 36.3515 1.29777 37.9386 3.04783 38.3841L0.2397 42.5409C-0.0498023 42.97 -0.0797508 43.5231 0.164716 43.9809C0.408501 44.4367 0.883368 44.722 1.40043 44.722H4.19733V53.0367C4.19733 55.3432 5.41127 57.0802 7.02089 57.0802H13.9936C15.6052 57.0802 16.8192 55.3432 16.8192 53.0367V44.722H18.9227C18.4057 44.722 17.9316 44.4373 17.6877 43.9809C17.4458 43.5231 17.4738 42.97 17.7633 42.5409L19.2702 40.3092L17.9685 38.3841C18.4418 38.2642 18.8792 38.0517 19.2702 37.782C18.4861 37.2356 17.9118 36.4209 17.666 35.47Z" fill="#F39200"/>
<path d="M59.6301 42.3773L56.9346 38.3834C58.6818 37.9373 59.9796 36.3508 59.9796 34.4653V21.1813C59.9796 18.9527 58.1662 17.1377 55.938 17.1377H55.541C56.7467 15.7354 57.4811 13.9183 57.4811 11.9289C57.4811 7.51204 53.8891 3.9198 49.4737 3.9198C45.0575 3.9198 41.4648 7.51215 41.4648 11.9289C41.4648 13.9183 42.1985 15.7354 43.4049 17.1377H43.007C42.1127 17.1377 41.2898 17.4418 40.6187 17.9384C41.383 18.5028 41.9424 19.3237 42.1603 20.2801L42.1577 35.3631C41.9383 36.3195 41.3846 37.1436 40.6189 37.707C41.0337 38.015 41.5004 38.2521 42.0133 38.3834L40.6189 40.4475L41.9207 42.3773C42.1502 42.6259 42.2899 42.959 42.2899 43.3214C42.2899 44.0952 41.6639 44.7213 40.8908 44.7213H43.1624V53.0359C43.1624 55.3432 44.3777 57.0795 45.9867 57.0795H52.96C54.5704 57.0795 55.7849 55.3432 55.7849 53.0359V44.7213H58.5819C58.5907 44.7198 58.5962 44.7198 58.6009 44.7213C59.374 44.7213 60.0001 44.0966 60.0001 43.3214C59.9988 42.959 59.859 42.6267 59.6301 42.3773Z" fill="#F39200"/>
</g>
<defs>
<clipPath id="clip0_1_23">
<rect width="60" height="60" fill="white" transform="translate(0 0.5)"/>
</clipPath>
</defs>
</svg>
