<svg width="60" height="61" viewBox="0 0 60 61" fill="none" xmlns="http://www.w3.org/2000/svg">
<g clip-path="url(#clip0_1_2)">
<path d="M53.8168 2.79008H51.7594C51.8125 2.62153 51.8675 2.44931 51.8675 2.26244C51.8675 1.29145 51.076 0.5 50.1032 0.5C49.1304 0.5 48.3426 1.29145 48.3426 2.26244C48.3426 2.45115 48.3939 2.62153 48.4507 2.79008H41.7087C41.7618 2.62153 41.8168 2.44931 41.8168 2.26244C41.8168 1.29145 41.0253 0.5 40.0525 0.5C39.0815 0.5 38.2901 1.29145 38.2901 2.26244C38.2901 2.45115 38.3432 2.62153 38.4 2.79008H31.6562C31.7093 2.62153 31.7624 2.44931 31.7624 2.26244C31.7624 1.29145 30.9747 0.5 30.0018 0.5C29.029 0.5 28.2412 1.29145 28.2412 2.26244C28.2412 2.45115 28.2925 2.62153 28.3475 2.79008H21.6037C21.6568 2.62153 21.7118 2.44931 21.7118 2.26244C21.7118 1.29145 20.9221 0.5 19.9511 0.5C18.9783 0.5 18.1887 1.29145 18.1887 2.26244C18.1887 2.45115 18.24 2.62153 18.295 2.79008H11.553C11.6079 2.62153 11.6611 2.44931 11.6611 2.26244C11.6611 1.29145 10.8733 0.5 9.90046 0.5C8.92763 0.5 8.13802 1.29145 8.13802 2.26244C8.13802 2.45115 8.18931 2.62153 8.24428 2.79008H6.18321C3.40214 2.79008 1.14504 5.05084 1.14504 7.82824V55.4618C1.14504 58.2429 3.40214 60.5 6.18321 60.5H48.1282L58.855 49.7733V7.82824C58.855 5.05084 56.5979 2.79008 53.8168 2.79008ZM56.1069 48.6337L55.5371 49.2035H51.2226C49.2037 49.2035 47.5585 50.8524 47.5585 52.8676V57.1821L46.9887 57.7519H6.18321C4.92092 57.7519 3.89313 56.7241 3.89313 55.4618V9.66031H56.1069V48.6337Z" fill="#FFBD2E"/>
<path d="M32.5832 24.6997C32.8379 24.8463 33.1621 24.7565 33.3087 24.5073L33.5744 24.0457C33.7246 23.7892 33.6348 23.4649 33.382 23.3183L24.1612 17.998C23.9066 17.8515 23.5823 17.9394 23.4357 18.1922L23.1701 18.6521C23.0235 18.9067 23.1096 19.231 23.3643 19.3794L32.5832 24.6997Z" fill="#FFBD2E"/>
<path d="M24.6009 38.5281C24.8556 38.6746 25.1798 38.5867 25.3282 38.3339L25.5939 37.8759C25.7423 37.6212 25.6544 37.2969 25.3997 37.1504L16.1808 31.8282C15.9261 31.6817 15.6018 31.7678 15.4534 32.0188L15.1878 32.4804C15.0394 32.7369 15.1273 33.0612 15.382 33.2059L24.6009 38.5281Z" fill="#FFBD2E"/>
<path d="M25.3374 36.1867C25.5902 36.337 25.9182 36.2472 26.0629 35.9962L28.5435 31.7L46.0525 42.8939C46.2998 43.0515 46.6186 42.9727 46.7652 42.718L48.0971 40.4133C48.2437 40.1586 48.1502 39.8417 47.8937 39.7079L29.4412 30.1446L31.92 25.8484C32.0666 25.5956 31.9805 25.2676 31.7258 25.1229L23.4266 20.3339C23.1737 20.1873 22.8476 20.2734 22.7011 20.5281L16.8458 30.6704C16.7011 30.9214 16.7872 31.2493 17.0418 31.3959L25.3374 36.1867Z" fill="#FFBD2E"/>
<path d="M47.7472 44.2111L48.6669 44.7406C48.9234 44.8908 49.2476 44.7974 49.3942 44.5501L50.9918 41.7837C51.1383 41.5272 51.0504 41.2029 50.7994 41.0563L49.876 40.5232C49.6232 40.3766 49.2971 40.4664 49.1505 40.7156L47.553 43.482C47.4064 43.7403 47.4944 44.0609 47.7472 44.2111Z" fill="#FFBD2E"/>
<path d="M9.81435 49.6047H30.8794C31.3649 49.6047 31.7569 49.209 31.7569 48.7272V45.217C31.7569 44.7333 31.3631 44.3394 30.8794 44.3394H29.7692C29.9102 44.18 30.0018 43.9785 30.0018 43.7531V42.8756C30.0018 42.3937 29.6079 41.998 29.1243 41.998H11.5695C11.0858 41.998 10.6901 42.3974 10.6901 42.8756V43.7531C10.6901 43.9785 10.7853 44.18 10.9246 44.3394H9.81252C9.32702 44.3394 8.93496 44.7333 8.93496 45.217V48.7272C8.93679 49.209 9.33069 49.6047 9.81435 49.6047ZM10.2211 46.5489C10.2229 46.0414 10.6369 45.6237 11.1444 45.6237H29.6318C30.1429 45.6237 30.5588 46.0414 30.5569 46.5489L30.5588 47.4722C30.5569 47.9815 30.1429 48.3956 29.6318 48.3956H11.1444C10.6369 48.3956 10.2211 47.9815 10.2211 47.4722V46.5489Z" fill="#FFBD2E"/>
</g>
<defs>
<clipPath id="clip0_1_2">
<rect width="60" height="60" fill="white" transform="translate(0 0.5)"/>
</clipPath>
</defs>
</svg>
