<svg width="60" height="61" viewBox="0 0 60 61" fill="none" xmlns="http://www.w3.org/2000/svg">
<path d="M19.8363 7.1225C24.1448 7.1225 27.6377 10.6154 27.6377 14.9239C27.6377 19.2324 24.1448 22.7253 19.8363 22.7253C15.5278 22.7253 12.0349 19.2324 12.0349 14.9239C12.0349 10.6154 15.5276 7.1225 19.8363 7.1225ZM7.26609 36.362C7.26609 35.7763 7.6425 35.379 8.24906 35.379C8.85562 35.379 9.23203 35.7554 9.23203 36.362V58.1555H30.6701V36.362C30.6701 35.7763 31.0465 35.379 31.653 35.379C32.2387 35.379 32.636 35.7554 32.636 36.362V58.1555H39.4545V34.396C39.4545 29.0209 35.0623 24.6495 29.708 24.6495H27.742L22.0113 33.5593L21.3211 26.8873L22.2623 24.6284H18.0375L18.9787 26.8873L18.2468 33.601L12.5159 24.6495H10.2152C4.84008 24.6495 0.46875 29.0417 0.46875 34.396V58.1558H7.28719V36.3622L7.26609 36.362ZM44.8519 33.9038H59.5312V30.9266H44.8519V33.9038ZM47.0393 29.9422H57.3197L58.2919 26.649C55.7278 23.8297 54.0996 22.2378 54.0996 18.4951C54.0996 17.7296 54.1481 17.6202 54.221 16.891H56.299V14.0476H54.7556C54.7556 14.0476 56.6878 10.317 56.6878 9.86727C56.6878 8.62789 55.6793 7.63133 54.4519 7.63133C53.82 7.63133 53.261 7.88656 52.8478 8.31172V5.57797H54.1966V4.30203H52.8478V2.84375H51.5719V4.30203H50.223V5.57797H51.5719V8.32438C51.1587 7.89898 50.5875 7.6318 49.9556 7.6318C48.7162 7.6318 47.7197 8.64031 47.7197 9.86773C47.7197 10.3053 49.7004 14.048 49.7004 14.048H48.072V16.8915H50.1984C50.2835 17.6206 50.3198 17.7298 50.3198 18.4955C50.3198 22.2383 48.6673 23.8667 46.091 26.6858L47.0393 29.9422Z" fill="black"/>
</svg>
