<svg width="60" height="61" viewBox="0 0 60 61" fill="none" xmlns="http://www.w3.org/2000/svg">
<path d="M37.5 9.875H35.625C35.625 6.77375 33.1013 4.25 30 4.25C26.8987 4.25 24.375 6.77375 24.375 9.875H22.5C21.465 9.875 20.625 10.7131 20.625 11.75V13.625H16.5394C13.6238 13.625 11.25 15.9988 11.25 18.9144V51.4587C11.25 54.3762 13.6238 56.75 16.5394 56.75H43.4587C46.3762 56.75 48.75 54.3763 48.75 51.4606V18.9144C48.75 15.9988 46.3763 13.625 43.4606 13.625H39.375V11.75C39.375 10.7131 38.535 9.875 37.5 9.875ZM30 8C31.0331 8 31.875 8.84 31.875 9.875H28.125C28.125 8.84 28.9669 8 30 8ZM24.375 13.625H35.625V17.375H24.375V13.625ZM43.4606 17.375C44.3081 17.375 45 18.065 45 18.9144V51.4587C45 52.31 44.3081 53 43.4606 53H16.5394C15.6919 53 15 52.31 15 51.4606V18.9144C15 18.065 15.6919 17.375 16.5394 17.375H20.625V19.25C20.625 20.2869 21.465 21.125 22.5 21.125H37.5C38.535 21.125 39.375 20.2869 39.375 19.25V17.375H43.4606Z" fill="black"/>
<path d="M24.375 24.875H18.75C17.715 24.875 16.875 25.7131 16.875 26.75V32.375C16.875 33.4119 17.715 34.25 18.75 34.25H24.375C25.41 34.25 26.25 33.4119 26.25 32.375V26.75C26.25 25.7131 25.41 24.875 24.375 24.875ZM22.5 30.5H20.625V28.625H22.5V30.5Z" fill="black"/>
<path d="M28.125 29.5625C28.125 30.5994 28.965 31.4375 30 31.4375H41.25C42.285 31.4375 43.125 30.5994 43.125 29.5625C43.125 28.5256 42.285 27.6875 41.25 27.6875H30C28.965 27.6875 28.125 28.5256 28.125 29.5625Z" fill="black"/>
<path d="M24.375 38H18.75C17.715 38 16.875 38.8381 16.875 39.875V45.5C16.875 46.5369 17.715 47.375 18.75 47.375H24.375C25.41 47.375 26.25 46.5369 26.25 45.5V39.875C26.25 38.8381 25.41 38 24.375 38ZM22.5 43.625H20.625V41.75H22.5V43.625Z" fill="black"/>
<path d="M41.25 40.8125H30C28.965 40.8125 28.125 41.6506 28.125 42.6875C28.125 43.7244 28.965 44.5625 30 44.5625H41.25C42.285 44.5625 43.125 43.7244 43.125 42.6875C43.125 41.6506 42.285 40.8125 41.25 40.8125Z" fill="black"/>
</svg>
